<svg id="visual" viewBox="0 0 900 600" width="900" height="600" xmlns="http://www.w3.org/2000/svg" xmlns:xlink="http://www.w3.org/1999/xlink" version="1.1"><rect x="0" y="0" width="900" height="600" fill="#FFFFFF"></rect><path d="M0 410L15 416.7C30 423.3 60 436.7 90 443C120 449.3 150 448.7 180 448.8C210 449 240 450 270 450.8C300 451.7 330 452.3 360 441.2C390 430 420 407 450 402.8C480 398.7 510 413.3 540 419C570 424.7 600 421.3 630 417.3C660 413.3 690 408.7 720 413.8C750 419 780 434 810 430.5C840 427 870 405 885 394L900 383L900 601L885 601C870 601 840 601 810 601C780 601 750 601 720 601C690 601 660 601 630 601C600 601 570 601 540 601C510 601 480 601 450 601C420 601 390 601 360 601C330 601 300 601 270 601C240 601 210 601 180 601C150 601 120 601 90 601C60 601 30 601 15 601L0 601Z" fill="#ffffff"></path><path d="M0 466L15 460C30 454 60 442 90 430.2C120 418.3 150 406.7 180 407.7C210 408.7 240 422.3 270 426C300 429.7 330 423.3 360 421.3C390 419.3 420 421.7 450 431C480 440.3 510 456.7 540 457.3C570 458 600 443 630 437.8C660 432.7 690 437.3 720 438.8C750 440.3 780 438.7 810 441.5C840 444.3 870 451.7 885 455.3L900 459L900 601L885 601C870 601 840 601 810 601C780 601 750 601 720 601C690 601 660 601 630 601C600 601 570 601 540 601C510 601 480 601 450 601C420 601 390 601 360 601C330 601 300 601 270 601C240 601 210 601 180 601C150 601 120 601 90 601C60 601 30 601 15 601L0 601Z" fill="#faecef"></path><path d="M0 501L15 497.5C30 494 60 487 90 485.7C120 484.3 150 488.7 180 487.3C210 486 240 479 270 470.5C300 462 330 452 360 451C390 450 420 458 450 467.8C480 477.7 510 489.3 540 489.2C570 489 600 477 630 473.8C660 470.7 690 476.3 720 474C750 471.7 780 461.3 810 454C840 446.7 870 442.3 885 440.2L900 438L900 601L885 601C870 601 840 601 810 601C780 601 750 601 720 601C690 601 660 601 630 601C600 601 570 601 540 601C510 601 480 601 450 601C420 601 390 601 360 601C330 601 300 601 270 601C240 601 210 601 180 601C150 601 120 601 90 601C60 601 30 601 15 601L0 601Z" fill="#f4d9df"></path><path d="M0 526L15 521.7C30 517.3 60 508.7 90 498.8C120 489 150 478 180 473.7C210 469.3 240 471.7 270 476.2C300 480.7 330 487.3 360 490.5C390 493.7 420 493.3 450 489.7C480 486 510 479 540 476.7C570 474.3 600 476.7 630 481.7C660 486.7 690 494.3 720 499.5C750 504.7 780 507.3 810 507.8C840 508.3 870 506.7 885 505.8L900 505L900 601L885 601C870 601 840 601 810 601C780 601 750 601 720 601C690 601 660 601 630 601C600 601 570 601 540 601C510 601 480 601 450 601C420 601 390 601 360 601C330 601 300 601 270 601C240 601 210 601 180 601C150 601 120 601 90 601C60 601 30 601 15 601L0 601Z" fill="#eec5cf"></path><path d="M0 548L15 547.3C30 546.7 60 545.3 90 540.2C120 535 150 526 180 519.7C210 513.3 240 509.7 270 511.8C300 514 330 522 360 526.5C390 531 420 532 450 529.5C480 527 510 521 540 522.5C570 524 600 533 630 535.8C660 538.7 690 535.3 720 536.2C750 537 780 542 810 541.3C840 540.7 870 534.3 885 531.2L900 528L900 601L885 601C870 601 840 601 810 601C780 601 750 601 720 601C690 601 660 601 630 601C600 601 570 601 540 601C510 601 480 601 450 601C420 601 390 601 360 601C330 601 300 601 270 601C240 601 210 601 180 601C150 601 120 601 90 601C60 601 30 601 15 601L0 601Z" fill="#e8b2c0"></path><path d="M0 541L15 544.2C30 547.3 60 553.7 90 556C120 558.3 150 556.7 180 559.7C210 562.7 240 570.3 270 572C300 573.7 330 569.3 360 566.2C390 563 420 561 450 562.8C480 564.7 510 570.3 540 568C570 565.7 600 555.3 630 550.5C660 545.7 690 546.3 720 551C750 555.7 780 564.3 810 563.8C840 563.3 870 553.7 885 548.8L900 544L900 601L885 601C870 601 840 601 810 601C780 601 750 601 720 601C690 601 660 601 630 601C600 601 570 601 540 601C510 601 480 601 450 601C420 601 390 601 360 601C330 601 300 601 270 601C240 601 210 601 180 601C150 601 120 601 90 601C60 601 30 601 15 601L0 601Z" fill="#e19fb1"></path></svg>