<svg id="visual" viewBox="0 0 900 550" width="900" height="550" xmlns="http://www.w3.org/2000/svg" xmlns:xlink="http://www.w3.org/1999/xlink" version="1.1"><rect x="0" y="0" width="900" height="550" fill="#FADECF"></rect><path d="M0 328L25 344.3C50 360.7 100 393.3 150 406.7C200 420 250 414 300 392.8C350 371.7 400 335.3 450 316C500 296.7 550 294.3 600 303.2C650 312 700 332 750 347.2C800 362.3 850 372.7 875 377.8L900 383L900 551L875 551C850 551 800 551 750 551C700 551 650 551 600 551C550 551 500 551 450 551C400 551 350 551 300 551C250 551 200 551 150 551C100 551 50 551 25 551L0 551Z" fill="#fadecf"></path><path d="M0 392L25 383.3C50 374.7 100 357.3 150 346.8C200 336.3 250 332.7 300 346C350 359.3 400 389.7 450 399.5C500 409.3 550 398.7 600 387.3C650 376 700 364 750 354.3C800 344.7 850 337.3 875 333.7L900 330L900 551L875 551C850 551 800 551 750 551C700 551 650 551 600 551C550 551 500 551 450 551C400 551 350 551 300 551C250 551 200 551 150 551C100 551 50 551 25 551L0 551Z" fill="#f7d1c4"></path><path d="M0 379L25 378.8C50 378.7 100 378.3 150 371.8C200 365.3 250 352.7 300 348.8C350 345 400 350 450 359C500 368 550 381 600 395.2C650 409.3 700 424.7 750 423.2C800 421.7 850 403.3 875 394.2L900 385L900 551L875 551C850 551 800 551 750 551C700 551 650 551 600 551C550 551 500 551 450 551C400 551 350 551 300 551C250 551 200 551 150 551C100 551 50 551 25 551L0 551Z" fill="#f3c4bc"></path><path d="M0 461L25 457.7C50 454.3 100 447.7 150 446C200 444.3 250 447.7 300 444.3C350 441 400 431 450 422.2C500 413.3 550 405.7 600 400.5C650 395.3 700 392.7 750 396.3C800 400 850 410 875 415L900 420L900 551L875 551C850 551 800 551 750 551C700 551 650 551 600 551C550 551 500 551 450 551C400 551 350 551 300 551C250 551 200 551 150 551C100 551 50 551 25 551L0 551Z" fill="#efb8b6"></path><path d="M0 477L25 469.7C50 462.3 100 447.7 150 447.7C200 447.7 250 462.3 300 468.5C350 474.7 400 472.3 450 476.3C500 480.3 550 490.7 600 490C650 489.3 700 477.7 750 468.3C800 459 850 452 875 448.5L900 445L900 551L875 551C850 551 800 551 750 551C700 551 650 551 600 551C550 551 500 551 450 551C400 551 350 551 300 551C250 551 200 551 150 551C100 551 50 551 25 551L0 551Z" fill="#e9abb3"></path><path d="M0 506L25 502.3C50 498.7 100 491.3 150 486.2C200 481 250 478 300 481.5C350 485 400 495 450 498.7C500 502.3 550 499.7 600 498C650 496.3 700 495.7 750 491C800 486.3 850 477.7 875 473.3L900 469L900 551L875 551C850 551 800 551 750 551C700 551 650 551 600 551C550 551 500 551 450 551C400 551 350 551 300 551C250 551 200 551 150 551C100 551 50 551 25 551L0 551Z" fill="#e19fb1"></path></svg>