<svg id="visual" viewBox="0 0 900 450" width="900" height="450" xmlns="http://www.w3.org/2000/svg" xmlns:xlink="http://www.w3.org/1999/xlink" version="1.1"><rect x="0" y="0" width="900" height="450" fill="#F2F1F0"></rect><path d="M0 245L21.5 252C43 259 86 273 128.8 280.7C171.7 288.3 214.3 289.7 257.2 284.7C300 279.7 343 268.3 385.8 266.2C428.7 264 471.3 271 514.2 278.7C557 286.3 600 294.7 642.8 287.7C685.7 280.7 728.3 258.3 771.2 248.7C814 239 857 242 878.5 243.5L900 245L900 451L878.5 451C857 451 814 451 771.2 451C728.3 451 685.7 451 642.8 451C600 451 557 451 514.2 451C471.3 451 428.7 451 385.8 451C343 451 300 451 257.2 451C214.3 451 171.7 451 128.8 451C86 451 43 451 21.5 451L0 451Z" fill="#f2f1f0"></path><path d="M0 341L21.5 343.3C43 345.7 86 350.3 128.8 347C171.7 343.7 214.3 332.3 257.2 330.7C300 329 343 337 385.8 337.2C428.7 337.3 471.3 329.7 514.2 327.2C557 324.7 600 327.3 642.8 320.5C685.7 313.7 728.3 297.3 771.2 292.8C814 288.3 857 295.7 878.5 299.3L900 303L900 451L878.5 451C857 451 814 451 771.2 451C728.3 451 685.7 451 642.8 451C600 451 557 451 514.2 451C471.3 451 428.7 451 385.8 451C343 451 300 451 257.2 451C214.3 451 171.7 451 128.8 451C86 451 43 451 21.5 451L0 451Z" fill="#eee2da"></path><path d="M0 328L21.5 328C43 328 86 328 128.8 332C171.7 336 214.3 344 257.2 350.3C300 356.7 343 361.3 385.8 360.3C428.7 359.3 471.3 352.7 514.2 352.7C557 352.7 600 359.3 642.8 351C685.7 342.7 728.3 319.3 771.2 317.7C814 316 857 336 878.5 346L900 356L900 451L878.5 451C857 451 814 451 771.2 451C728.3 451 685.7 451 642.8 451C600 451 557 451 514.2 451C471.3 451 428.7 451 385.8 451C343 451 300 451 257.2 451C214.3 451 171.7 451 128.8 451C86 451 43 451 21.5 451L0 451Z" fill="#edd1c8"></path><path d="M0 381L21.5 374.2C43 367.3 86 353.7 128.8 348.3C171.7 343 214.3 346 257.2 352.3C300 358.7 343 368.3 385.8 371.5C428.7 374.7 471.3 371.3 514.2 366.2C557 361 600 354 642.8 352.7C685.7 351.3 728.3 355.7 771.2 356.7C814 357.7 857 355.3 878.5 354.2L900 353L900 451L878.5 451C857 451 814 451 771.2 451C728.3 451 685.7 451 642.8 451C600 451 557 451 514.2 451C471.3 451 428.7 451 385.8 451C343 451 300 451 257.2 451C214.3 451 171.7 451 128.8 451C86 451 43 451 21.5 451L0 451Z" fill="#ebc0bb"></path><path d="M0 410L21.5 402.8C43 395.7 86 381.3 128.8 376.3C171.7 371.3 214.3 375.7 257.2 380.5C300 385.3 343 390.7 385.8 390C428.7 389.3 471.3 382.7 514.2 378.7C557 374.7 600 373.3 642.8 375.7C685.7 378 728.3 384 771.2 387.8C814 391.7 857 393.3 878.5 394.2L900 395L900 451L878.5 451C857 451 814 451 771.2 451C728.3 451 685.7 451 642.8 451C600 451 557 451 514.2 451C471.3 451 428.7 451 385.8 451C343 451 300 451 257.2 451C214.3 451 171.7 451 128.8 451C86 451 43 451 21.5 451L0 451Z" fill="#e8afb3"></path><path d="M0 426L21.5 424.8C43 423.7 86 421.3 128.8 417.5C171.7 413.7 214.3 408.3 257.2 405.3C300 402.3 343 401.7 385.8 400.7C428.7 399.7 471.3 398.3 514.2 397.8C557 397.3 600 397.7 642.8 400.3C685.7 403 728.3 408 771.2 410.3C814 412.7 857 412.3 878.5 412.2L900 412L900 451L878.5 451C857 451 814 451 771.2 451C728.3 451 685.7 451 642.8 451C600 451 557 451 514.2 451C471.3 451 428.7 451 385.8 451C343 451 300 451 257.2 451C214.3 451 171.7 451 128.8 451C86 451 43 451 21.5 451L0 451Z" fill="#e19fb1"></path></svg>