<svg id="visual" viewBox="0 0 900 550" width="900" height="550" xmlns="http://www.w3.org/2000/svg" xmlns:xlink="http://www.w3.org/1999/xlink" version="1.1"><rect x="0" y="0" width="900" height="550" fill="#F2F1F0"></rect><path d="M0 393L16.7 390.2C33.3 387.3 66.7 381.7 100 376.8C133.3 372 166.7 368 200 366C233.3 364 266.7 364 300 356.7C333.3 349.3 366.7 334.7 400 334.5C433.3 334.3 466.7 348.7 500 355.3C533.3 362 566.7 361 600 355.8C633.3 350.7 666.7 341.3 700 341.3C733.3 341.3 766.7 350.7 800 359.2C833.3 367.7 866.7 375.3 883.3 379.2L900 383L900 551L883.3 551C866.7 551 833.3 551 800 551C766.7 551 733.3 551 700 551C666.7 551 633.3 551 600 551C566.7 551 533.3 551 500 551C466.7 551 433.3 551 400 551C366.7 551 333.3 551 300 551C266.7 551 233.3 551 200 551C166.7 551 133.3 551 100 551C66.7 551 33.3 551 16.7 551L0 551Z" fill="#f2f1f0"></path><path d="M0 413L16.7 414C33.3 415 66.7 417 100 406.7C133.3 396.3 166.7 373.7 200 359C233.3 344.3 266.7 337.7 300 334C333.3 330.3 366.7 329.7 400 341.8C433.3 354 466.7 379 500 382.8C533.3 386.7 566.7 369.3 600 364C633.3 358.7 666.7 365.3 700 371.7C733.3 378 766.7 384 800 382.8C833.3 381.7 866.7 373.3 883.3 369.2L900 365L900 551L883.3 551C866.7 551 833.3 551 800 551C766.7 551 733.3 551 700 551C666.7 551 633.3 551 600 551C566.7 551 533.3 551 500 551C466.7 551 433.3 551 400 551C366.7 551 333.3 551 300 551C266.7 551 233.3 551 200 551C166.7 551 133.3 551 100 551C66.7 551 33.3 551 16.7 551L0 551Z" fill="#f3eee9"></path><path d="M0 430L16.7 424.2C33.3 418.3 66.7 406.7 100 405.8C133.3 405 166.7 415 200 413.3C233.3 411.7 266.7 398.3 300 395.5C333.3 392.7 366.7 400.3 400 406.8C433.3 413.3 466.7 418.7 500 422.3C533.3 426 566.7 428 600 422C633.3 416 666.7 402 700 394.7C733.3 387.3 766.7 386.7 800 382.8C833.3 379 866.7 372 883.3 368.5L900 365L900 551L883.3 551C866.7 551 833.3 551 800 551C766.7 551 733.3 551 700 551C666.7 551 633.3 551 600 551C566.7 551 533.3 551 500 551C466.7 551 433.3 551 400 551C366.7 551 333.3 551 300 551C266.7 551 233.3 551 200 551C166.7 551 133.3 551 100 551C66.7 551 33.3 551 16.7 551L0 551Z" fill="#f4eae1"></path><path d="M0 418L16.7 422.3C33.3 426.7 66.7 435.3 100 437C133.3 438.7 166.7 433.3 200 432.5C233.3 431.7 266.7 435.3 300 437.5C333.3 439.7 366.7 440.3 400 442.8C433.3 445.3 466.7 449.7 500 443.3C533.3 437 566.7 420 600 416.5C633.3 413 666.7 423 700 430.5C733.3 438 766.7 443 800 446.8C833.3 450.7 866.7 453.3 883.3 454.7L900 456L900 551L883.3 551C866.7 551 833.3 551 800 551C766.7 551 733.3 551 700 551C666.7 551 633.3 551 600 551C566.7 551 533.3 551 500 551C466.7 551 433.3 551 400 551C366.7 551 333.3 551 300 551C266.7 551 233.3 551 200 551C166.7 551 133.3 551 100 551C66.7 551 33.3 551 16.7 551L0 551Z" fill="#f6e6db"></path><path d="M0 482L16.7 481.8C33.3 481.7 66.7 481.3 100 480.5C133.3 479.7 166.7 478.3 200 476.2C233.3 474 266.7 471 300 470C333.3 469 366.7 470 400 469.8C433.3 469.7 466.7 468.3 500 463.5C533.3 458.7 566.7 450.3 600 447.3C633.3 444.3 666.7 446.7 700 449.5C733.3 452.3 766.7 455.7 800 458C833.3 460.3 866.7 461.7 883.3 462.3L900 463L900 551L883.3 551C866.7 551 833.3 551 800 551C766.7 551 733.3 551 700 551C666.7 551 633.3 551 600 551C566.7 551 533.3 551 500 551C466.7 551 433.3 551 400 551C366.7 551 333.3 551 300 551C266.7 551 233.3 551 200 551C166.7 551 133.3 551 100 551C66.7 551 33.3 551 16.7 551L0 551Z" fill="#f8e2d5"></path><path d="M0 486L16.7 488.5C33.3 491 66.7 496 100 495.8C133.3 495.7 166.7 490.3 200 487.5C233.3 484.7 266.7 484.3 300 484C333.3 483.7 366.7 483.3 400 482.8C433.3 482.3 466.7 481.7 500 486.2C533.3 490.7 566.7 500.3 600 501.8C633.3 503.3 666.7 496.7 700 493.5C733.3 490.3 766.7 490.7 800 491.2C833.3 491.7 866.7 492.3 883.3 492.7L900 493L900 551L883.3 551C866.7 551 833.3 551 800 551C766.7 551 733.3 551 700 551C666.7 551 633.3 551 600 551C566.7 551 533.3 551 500 551C466.7 551 433.3 551 400 551C366.7 551 333.3 551 300 551C266.7 551 233.3 551 200 551C166.7 551 133.3 551 100 551C66.7 551 33.3 551 16.7 551L0 551Z" fill="#fadecf"></path></svg>