<svg id="visual" viewBox="0 0 900 600" width="900" height="600" xmlns="http://www.w3.org/2000/svg" xmlns:xlink="http://www.w3.org/1999/xlink" version="1.1"><rect x="0" y="0" width="900" height="600" fill="#F2F1F0"></rect><path d="M0 448L21.5 437.2C43 426.3 86 404.7 128.8 392.8C171.7 381 214.3 379 257.2 375.2C300 371.3 343 365.7 385.8 372.2C428.7 378.7 471.3 397.3 514.2 398.3C557 399.3 600 382.7 642.8 382.8C685.7 383 728.3 400 771.2 404.5C814 409 857 401 878.5 397L900 393L900 601L878.5 601C857 601 814 601 771.2 601C728.3 601 685.7 601 642.8 601C600 601 557 601 514.2 601C471.3 601 428.7 601 385.8 601C343 601 300 601 257.2 601C214.3 601 171.7 601 128.8 601C86 601 43 601 21.5 601L0 601Z" fill="#f2f1f0"></path><path d="M0 453L21.5 456.3C43 459.7 86 466.3 128.8 461.5C171.7 456.7 214.3 440.3 257.2 428.8C300 417.3 343 410.7 385.8 407C428.7 403.3 471.3 402.7 514.2 405.8C557 409 600 416 642.8 420C685.7 424 728.3 425 771.2 434.3C814 443.7 857 461.3 878.5 470.2L900 479L900 601L878.5 601C857 601 814 601 771.2 601C728.3 601 685.7 601 642.8 601C600 601 557 601 514.2 601C471.3 601 428.7 601 385.8 601C343 601 300 601 257.2 601C214.3 601 171.7 601 128.8 601C86 601 43 601 21.5 601L0 601Z" fill="#f3ede7"></path><path d="M0 444L21.5 448.5C43 453 86 462 128.8 467.7C171.7 473.3 214.3 475.7 257.2 482.2C300 488.7 343 499.3 385.8 492.7C428.7 486 471.3 462 514.2 454.8C557 447.7 600 457.3 642.8 469.3C685.7 481.3 728.3 495.7 771.2 498.3C814 501 857 492 878.5 487.5L900 483L900 601L878.5 601C857 601 814 601 771.2 601C728.3 601 685.7 601 642.8 601C600 601 557 601 514.2 601C471.3 601 428.7 601 385.8 601C343 601 300 601 257.2 601C214.3 601 171.7 601 128.8 601C86 601 43 601 21.5 601L0 601Z" fill="#f5e8de"></path><path d="M0 504L21.5 501.2C43 498.3 86 492.7 128.8 499C171.7 505.3 214.3 523.7 257.2 529.5C300 535.3 343 528.7 385.8 528.3C428.7 528 471.3 534 514.2 529C557 524 600 508 642.8 498.3C685.7 488.7 728.3 485.3 771.2 488.2C814 491 857 500 878.5 504.5L900 509L900 601L878.5 601C857 601 814 601 771.2 601C728.3 601 685.7 601 642.8 601C600 601 557 601 514.2 601C471.3 601 428.7 601 385.8 601C343 601 300 601 257.2 601C214.3 601 171.7 601 128.8 601C86 601 43 601 21.5 601L0 601Z" fill="#f7e3d6"></path><path d="M0 568L21.5 562.3C43 556.7 86 545.3 128.8 544.8C171.7 544.3 214.3 554.7 257.2 557.7C300 560.7 343 556.3 385.8 555.8C428.7 555.3 471.3 558.7 514.2 555.5C557 552.3 600 542.7 642.8 538.5C685.7 534.3 728.3 535.7 771.2 535.5C814 535.3 857 533.7 878.5 532.8L900 532L900 601L878.5 601C857 601 814 601 771.2 601C728.3 601 685.7 601 642.8 601C600 601 557 601 514.2 601C471.3 601 428.7 601 385.8 601C343 601 300 601 257.2 601C214.3 601 171.7 601 128.8 601C86 601 43 601 21.5 601L0 601Z" fill="#fadecf"></path></svg>